P3
8 4
255
0 0 0 100 0 0 0 0 0 255 0 255 0 0 0 0 0 0 0 0 0 15 0 15 
0 0 0 100 0 0 0 0 0 255 0 255 0 0 0 0 0 0 0 0 0 15 0 15 
0 0 0 100 0 0 0 0 0 255 0 255 0 0 0 0 0 0 0 0 0 15 0 15 
0 0 0 100 0 0 0 0 0 255 0 255 0 0 0 0 0 0 0 0 0 15 0 15 
